<svg width="39" height="39" viewBox="0 0 39 39" fill="none" xmlns="http://www.w3.org/2000/svg">
<path d="M29.3082 9.69181H29.3262M10.4214 1.59747H28.4089C33.376 1.59747 37.4026 5.62409 37.4026 10.5912V28.5786C37.4026 33.5457 33.376 37.5723 28.4089 37.5723H10.4214C5.45436 37.5723 1.42773 33.5457 1.42773 28.5786V10.5912C1.42773 5.62409 5.45436 1.59747 10.4214 1.59747ZM26.6101 18.4517C26.8321 19.9487 26.5764 21.4776 25.8794 22.8209C25.1824 24.1642 24.0796 25.2535 22.7278 25.9339C21.376 26.6143 19.8441 26.8511 18.3499 26.6107C16.8558 26.3702 15.4755 25.6648 14.4054 24.5947C13.3353 23.5246 12.6298 22.1443 12.3894 20.6501C12.149 19.156 12.3858 17.6241 13.0662 16.2723C13.7466 14.9205 14.8359 13.8177 16.1792 13.1206C17.5225 12.4236 19.0514 12.1679 20.5484 12.3899C22.0754 12.6164 23.489 13.3279 24.5806 14.4195C25.6721 15.511 26.3837 16.9247 26.6101 18.4517Z" stroke="#DEE3E8" stroke-width="2" stroke-linecap="round" stroke-linejoin="round"/>
</svg>
