<svg width="39" height="37" viewBox="0 0 39 37" fill="none" xmlns="http://www.w3.org/2000/svg">
<path d="M26.6668 12.3899C29.5291 12.3899 32.2742 13.527 34.2982 15.551C36.3222 17.5749 37.4592 20.32 37.4592 23.1824V35.7736H30.2642V23.1824C30.2642 22.2283 29.8852 21.3132 29.2106 20.6386C28.5359 19.9639 27.6209 19.5849 26.6668 19.5849C25.7127 19.5849 24.7976 19.9639 24.123 20.6386C23.4483 21.3132 23.0693 22.2283 23.0693 23.1824V35.7736H15.8743V23.1824C15.8743 20.32 17.0114 17.5749 19.0353 15.551C21.0593 13.527 23.8044 12.3899 26.6668 12.3899Z" stroke="#DEE3E8" stroke-width="2" stroke-linecap="round" stroke-linejoin="round"/>
<path d="M8.67934 14.1887H1.48438V35.7736H8.67934V14.1887Z" stroke="#DEE3E8" stroke-width="2" stroke-linecap="round" stroke-linejoin="round"/>
<path d="M5.08186 8.79244C7.06869 8.79244 8.67934 7.18179 8.67934 5.19496C8.67934 3.20812 7.06869 1.59747 5.08186 1.59747C3.09502 1.59747 1.48438 3.20812 1.48438 5.19496C1.48438 7.18179 3.09502 8.79244 5.08186 8.79244Z" stroke="#DEE3E8" stroke-width="2" stroke-linecap="round" stroke-linejoin="round"/>
</svg>
