<svg width="30" height="42" viewBox="0 0 30 42" fill="none" xmlns="http://www.w3.org/2000/svg">
<path d="M15.0003 41.8334C14.5142 41.8334 14.0975 41.6945 13.7503 41.4168C13.4031 41.139 13.1427 40.7744 12.9691 40.323C12.3094 38.3786 11.476 36.5556 10.4691 34.8542C9.49685 33.1529 8.12533 31.1563 6.35449 28.8647C4.58366 26.573 3.14269 24.3855 2.03158 22.3022C0.955187 20.2188 0.416992 17.7015 0.416992 14.7501C0.416992 10.6876 1.82324 7.25008 4.63574 4.43758C7.48296 1.59036 10.9378 0.166748 15.0003 0.166748C19.0628 0.166748 22.5003 1.59036 25.3128 4.43758C28.16 7.25008 29.5837 10.6876 29.5837 14.7501C29.5837 17.9098 28.976 20.5487 27.7607 22.6667C26.5802 24.7501 25.2087 26.8161 23.6462 28.8647C21.7712 31.3647 20.3475 33.448 19.3753 35.1147C18.4378 36.7466 17.6566 38.4827 17.0316 40.323C16.858 40.8091 16.5802 41.1911 16.1982 41.4688C15.851 41.7119 15.4517 41.8334 15.0003 41.8334ZM15.0003 19.9584C16.4587 19.9584 17.6913 19.4549 18.6982 18.448C19.7052 17.4411 20.2087 16.2084 20.2087 14.7501C20.2087 13.2917 19.7052 12.0591 18.6982 11.0522C17.6913 10.0452 16.4587 9.54175 15.0003 9.54175C13.542 9.54175 12.3094 10.0452 11.3024 11.0522C10.2955 12.0591 9.79199 13.2917 9.79199 14.7501C9.79199 16.2084 10.2955 17.4411 11.3024 18.448C12.3094 19.4549 13.542 19.9584 15.0003 19.9584Z" fill="#1D1B20"/>
</svg>
